<?xml version="1.0"?>
<svg width="40" height="32" xmlns="http://www.w3.org/2000/svg" xmlns:svg="http://www.w3.org/2000/svg">
 <!-- Created with SVG-edit - https://github.com/SVG-Edit/svgedit-->
 <title>logo</title>

 <g class="layer">
  <title>Layer 1</title>
  <path d="m14.94,26.57c-9.01,-6.31 -12.26,-10.32 -12.28,-15.2c-0.03,-4.46 3.97,-8.76 8.08,-8.75c2.05,0.02 6.49,1.65 8.06,2.98c0.8,0.68 1.17,0.61 2.92,-0.51c4.79,-3.06 9.46,-3.13 12.47,-0.16c4.83,4.72 3.95,10.35 -2.52,16.19c-3.45,3.11 -10.98,8.62 -11.76,8.62c-0.23,0 -2.48,-1.43 -4.95,-3.17l-0.01,-0.01z" fill="#000000" fill-opacity="0" id="svg_1" stroke="#ff0000" stroke-linecap="round" stroke-linejoin="round" stroke-width="4" transform="matrix(1 0 0 1 0 0)"/>
  <path d="m13.95,22.16c-0.95,-0.15 -1.26,-1.14 -0.69,-1.72c0.74,-0.92 2.34,-1.55 3.57,-0.97c0.03,-3.25 0,-6.47 0.03,-9.72c3.11,-0.52 6.21,-1.01 9.32,-1.55c0,3.63 -0.03,7.24 -0.03,10.87c-0.49,1.1 -2.05,1.85 -3.41,1.52c-0.82,-0.19 -1,-1.07 -0.56,-1.62c0.62,-0.8 1.77,-1.36 2.93,-1.21c0.33,-0.03 0.82,0.43 0.67,-0.08c0,-2.17 0,-4.36 0,-6.54c-2.85,0.47 -5.7,0.95 -8.55,1.41c0,2.62 0.03,5.27 -0.03,7.89c-0.21,0.88 -1.23,1.51 -2.23,1.67c-0.33,0.04 -0.67,0.07 -1,0.03l0,-0.03l-0.02,0.03zm7.42,-10.98c1.46,-0.23 2.93,-0.47 4.39,-0.73c0.18,-0.62 -0.64,-0.22 -1.05,-0.19c-2.49,0.41 -5.01,0.82 -7.5,1.22c-0.18,0.62 0.64,0.22 1.05,0.19c1.03,-0.18 2.08,-0.34 3.11,-0.52l0,0.03zm0,-1.1c1.46,-0.23 2.93,-0.47 4.39,-0.73c0.18,-0.62 -0.64,-0.22 -1.05,-0.19c-2.49,0.41 -5.01,0.82 -7.5,1.22c-0.18,0.62 0.64,0.22 1.05,0.19c1.03,-0.18 2.08,-0.34 3.11,-0.52l0,0.03z" fill="#000000" fill-opacity="0" id="svg_4" stroke="#ff0000" stroke-linecap="round" stroke-linejoin="round"/>
 </g>
</svg>